<?xml version="1.0" standalone="no"?><!DOCTYPE svg PUBLIC "-//W3C//DTD SVG 1.1//EN" "http://www.w3.org/Graphics/SVG/1.1/DTD/svg11.dtd"><svg width="200" height="200" viewBox="0 0 200 200" version="1.1" xmlns="http://www.w3.org/2000/svg" xmlns:xlink="http://www.w3.org/1999/xlink"><defs><style type="text/css"><![CDATA[
@font-face { font-family: ifont; src: url("//at.alicdn.com/t/font_1442373896_4754455.eot?#iefix") format("embedded-opentype"), url("//at.alicdn.com/t/font_1442373896_4754455.woff") format("woff"), url("//at.alicdn.com/t/font_1442373896_4754455.ttf") format("truetype"), url("//at.alicdn.com/t/font_1442373896_4754455.svg#ifont") format("svg"); }

]]></style></defs><g class="transform-group"><g transform="scale(0.1953125, 0.1953125)"><path d="M512 0C229.220174 0 0 229.242435 0 512c0 165.465043 78.558609 312.520348 200.347826 406.105043C286.675478 984.464696 394.685217 1024 512 1024s225.302261-39.535304 311.652174-105.917217c121.789217-93.584696 200.347826-240.64 200.347826-406.082783C1024 229.242435 794.735304 0 512 0zM389.209043 533.904696c-30.742261 0-55.652174-24.909913-55.652174-55.652174s24.909913-55.652174 55.652174-55.652174 55.652174 24.909913 55.652174 55.652174S419.951304 533.904696 389.209043 533.904696zM512 684.744348c-36.708174 0-66.493217-37.376-66.493217-83.478261l132.964174 0C578.470957 647.368348 548.730435 684.744348 512 684.744348zM633.499826 533.904696c-30.742261 0-55.652174-24.909913-55.652174-55.652174s24.909913-55.652174 55.652174-55.652174 55.652174 24.909913 55.652174 55.652174S664.242087 533.904696 633.499826 533.904696zM823.652174 859.737043 823.652174 503.429565c0-165.977043-139.53113-300.521739-311.652174-300.521739s-311.652174 134.544696-311.652174 300.521739l0 356.307478C104.915478 774.144 44.521739 650.284522 44.521739 512 44.521739 253.818435 253.796174 44.521739 512 44.521739c258.181565 0 467.478261 209.296696 467.478261 467.478261C979.478261 650.284522 919.084522 774.144 823.652174 859.737043z" fill="#272636"></path></g></g></svg>